<svg xmlns="http://www.w3.org/2000/svg" xmlns:xlink="http://www.w3.org/1999/xlink" width="500" zoomAndPan="magnify" viewBox="0 0 375 374.999991" height="500" preserveAspectRatio="xMidYMid meet" version="1.0"><defs><g/><clipPath id="47d0ae9219"><path d="M 7.875 131.621094 L 324.878906 131.621094 L 324.878906 218.84375 L 7.875 218.84375 Z M 7.875 131.621094 " clip-rule="nonzero"/></clipPath><clipPath id="91b5d67951"><path d="M 16.4375 139.824219 L 166.378906 139.824219 L 166.378906 210.726562 L 16.4375 210.726562 Z M 16.4375 139.824219 " clip-rule="nonzero"/></clipPath><clipPath id="215ac71c6a"><path d="M 175.128906 113.039062 L 313.976562 113.039062 L 313.976562 237.5 L 175.128906 237.5 Z M 175.128906 113.039062 " clip-rule="nonzero"/></clipPath><clipPath id="f67c8ed2b0"><path d="M 328.339844 173.492188 L 363.199219 173.492188 L 363.199219 176.488281 L 328.339844 176.488281 Z M 328.339844 173.492188 " clip-rule="nonzero"/></clipPath></defs><g clip-path="url(#47d0ae9219)"><path stroke-linecap="butt" transform="matrix(0.908565, 0, 0, 0.908565, 7.873396, 131.622414)" fill="none" stroke-linejoin="miter" d="M 0.00176518 -0.00145285 L 348.908065 -0.00145285 L 348.908065 96.093636 L 0.00176518 96.093636 Z M 0.00176518 -0.00145285 " stroke="#000000" stroke-width="4.952867" stroke-opacity="1" stroke-miterlimit="4"/></g><g clip-path="url(#91b5d67951)"><path fill="#000000" d="M 16.4375 139.824219 L 166.378906 139.824219 L 166.378906 210.726562 L 16.4375 210.726562 Z M 16.4375 139.824219 " fill-opacity="1" fill-rule="nonzero"/></g><g clip-path="url(#215ac71c6a)"><path fill="#231815" d="M 289.09375 234.566406 C 286.253906 234.566406 283.519531 233 281.003906 230.199219 L 280.9375 230.117188 C 280.292969 229.265625 279.707031 228.523438 279.148438 227.851562 L 279.046875 227.714844 C 275.4375 222.527344 272.386719 214.695312 270.285156 205.238281 L 293.023438 201.179688 C 299.964844 200.933594 303.710938 187.71875 303.710938 175.269531 C 303.710938 162.789062 299.949219 149.539062 292.972656 149.359375 L 292.972656 149.355469 C 292.796875 149.339844 276.675781 147.742188 270.039062 146.4375 C 273.851562 128.425781 281.046875 115.972656 289.09375 115.972656 C 300.980469 115.972656 311.023438 143.128906 311.023438 175.269531 C 311.023438 207.410156 300.980469 234.566406 289.09375 234.566406 Z M 281.949219 175.269531 C 281.949219 184.796875 284.144531 194.773438 288.285156 199.042969 L 269.683594 202.363281 C 268.085938 194.1875 267.167969 184.960938 267.167969 175.269531 C 267.167969 166.027344 268 157.203125 269.46875 149.3125 C 274.054688 150.214844 282.652344 151.210938 288.011719 151.789062 C 284.046875 156.210938 281.949219 165.953125 281.949219 175.269531 Z M 292.828125 198.257812 C 289.070312 198.257812 284.882812 188.816406 284.882812 175.269531 C 284.882812 161.722656 289.070312 152.285156 292.828125 152.285156 C 296.589844 152.285156 300.777344 161.722656 300.777344 175.269531 C 300.777344 188.816406 296.589844 198.257812 292.828125 198.257812 Z M 234.289062 198.046875 L 234.296875 198 L 233.117188 197.605469 C 232.433594 197.378906 231.746094 197.171875 231.058594 196.960938 C 229.136719 196.378906 227.226562 195.847656 225.382812 195.386719 C 222.484375 194.648438 219.488281 193.988281 216.484375 193.429688 L 216.476562 193.46875 C 216.476562 193.46875 216.472656 193.46875 216.472656 193.46875 C 212.539062 192.742188 208.59375 192.191406 204.75 191.828125 C 203.65625 191.722656 202.550781 191.640625 201.449219 191.5625 C 195.988281 176.523438 200.160156 162.40625 201.425781 158.78125 C 215.773438 158.503906 247.246094 154.925781 271.40625 131.148438 C 266.953125 142.339844 264.234375 157.863281 264.234375 175.269531 C 264.234375 192.792969 266.992188 208.40625 271.496094 219.613281 C 261.523438 210.195312 249.050781 202.964844 234.289062 198.046875 Z M 226.429688 205.765625 L 226.429688 198.78125 C 227.667969 199.113281 228.917969 199.460938 230.183594 199.84375 C 230.425781 199.921875 230.671875 199.996094 230.917969 200.070312 C 230.238281 202.773438 228.53125 204.898438 226.429688 205.765625 Z M 214.808594 234.613281 C 212.457031 234.613281 210.253906 233.699219 208.597656 232.03125 C 206.941406 230.378906 206.027344 228.171875 206.027344 225.820312 L 206.027344 194.914062 C 209.292969 195.265625 212.617188 195.742188 215.9375 196.351562 L 215.929688 196.394531 C 218.515625 196.875 221.082031 197.441406 223.59375 198.0625 L 223.59375 225.820312 C 223.59375 230.667969 219.652344 234.613281 214.808594 234.613281 Z M 194.015625 191.300781 C 193.839844 191.300781 193.679688 191.296875 193.515625 191.289062 C 188.160156 176.964844 192.316406 162.328125 193.539062 158.632812 C 193.675781 158.628906 193.808594 158.621094 193.953125 158.621094 C 194.304688 158.652344 195.886719 158.773438 198.414062 158.796875 C 196.808594 163.707031 193.519531 176.882812 198.378906 191.378906 C 195.648438 191.265625 194.066406 191.300781 194.015625 191.300781 Z M 178.058594 174.957031 C 178.058594 170.578125 179.722656 166.472656 182.742188 163.394531 C 184.859375 161.230469 187.527344 159.746094 190.417969 159.058594 C 188.835938 164.277344 185.84375 177.371094 190.347656 190.84375 C 183.300781 189.132812 178.058594 182.574219 178.058594 174.957031 Z M 289.09375 113.039062 C 285.082031 113.039062 281.320312 115.316406 277.996094 119.375 L 277.898438 119.300781 C 253.507812 151.832031 215.605469 155.707031 200.4375 155.863281 C 196.527344 155.914062 194.175781 155.695312 194.152344 155.695312 L 194.015625 155.6875 C 193.429688 155.6875 192.894531 155.710938 192.40625 155.761719 C 187.972656 156.140625 183.796875 158.125 180.648438 161.339844 C 177.089844 164.96875 175.128906 169.804688 175.128906 174.957031 C 175.128906 184.898438 182.71875 193.335938 192.386719 194.160156 C 192.890625 194.210938 193.40625 194.207031 194.050781 194.234375 C 194.074219 194.230469 196.4375 194.183594 200.363281 194.417969 C 201.300781 194.480469 202.246094 194.5625 203.191406 194.644531 L 203.191406 225.820312 C 203.191406 228.933594 204.402344 231.855469 206.59375 234.039062 C 208.78125 236.238281 211.699219 237.449219 214.808594 237.449219 C 221.21875 237.449219 226.429688 232.234375 226.429688 225.820312 L 226.429688 208.957031 C 229.929688 208.074219 232.734375 205.027344 233.792969 200.976562 C 251.769531 207.042969 266.203125 216.613281 276.6875 229.464844 L 276.847656 229.671875 C 276.863281 229.691406 276.878906 229.710938 276.894531 229.730469 C 277.421875 230.457031 277.957031 231.136719 278.507812 231.765625 C 278.539062 231.808594 278.574219 231.851562 278.605469 231.894531 L 278.613281 231.886719 C 281.785156 235.488281 285.328125 237.5 289.09375 237.5 C 303.035156 237.5 313.953125 210.164062 313.953125 175.269531 C 313.953125 140.375 303.035156 113.039062 289.09375 113.039062 " fill-opacity="1" fill-rule="nonzero"/></g><g clip-path="url(#f67c8ed2b0)"><path fill="#231815" d="M 361.738281 176.46875 L 329.84375 176.46875 C 329.03125 176.46875 328.375 175.8125 328.375 175 C 328.375 174.191406 329.03125 173.535156 329.84375 173.535156 L 361.738281 173.535156 C 362.546875 173.535156 363.203125 174.191406 363.203125 175 C 363.203125 175.8125 362.546875 176.46875 361.738281 176.46875 " fill-opacity="1" fill-rule="nonzero"/></g><path fill="#231815" d="M 324.398438 148.976562 C 323.820312 148.976562 323.269531 148.632812 323.039062 148.058594 C 322.738281 147.308594 323.101562 146.453125 323.851562 146.152344 L 353.421875 134.191406 C 354.175781 133.886719 355.027344 134.25 355.332031 135 C 355.632812 135.753906 355.269531 136.609375 354.523438 136.910156 L 324.949219 148.871094 C 324.769531 148.945312 324.582031 148.976562 324.398438 148.976562 " fill-opacity="1" fill-rule="nonzero"/><path fill="#231815" d="M 354.171875 215.957031 C 353.988281 215.957031 353.804688 215.925781 353.625 215.851562 L 324.050781 203.890625 C 323.300781 203.589844 322.9375 202.734375 323.242188 201.980469 C 323.542969 201.230469 324.398438 200.867188 325.148438 201.171875 L 354.722656 213.132812 C 355.472656 213.433594 355.835938 214.289062 355.53125 215.039062 C 355.300781 215.613281 354.753906 215.957031 354.171875 215.957031 " fill-opacity="1" fill-rule="nonzero"/><g fill="#ffffff" fill-opacity="0.4"><g transform="translate(48.606778, 187.825238)"><g><path d="M 3.46875 0 L 18.035156 0 L 18.035156 -2.859375 L 6.464844 -2.859375 L 6.464844 -23.816406 L 3.46875 -23.816406 Z M 3.46875 0 "/></g></g></g><g fill="#ffffff" fill-opacity="0.4"><g transform="translate(70.274959, 187.825238)"><g><path d="M 14.289062 0.441406 C 21.539062 0.441406 26.640625 -4.660156 26.640625 -11.910156 C 26.640625 -19.15625 21.539062 -24.261719 14.289062 -24.261719 C 7.042969 -24.261719 1.972656 -19.15625 1.972656 -11.910156 C 1.972656 -4.660156 7.042969 0.441406 14.289062 0.441406 Z M 5.035156 -11.910156 C 5.035156 -17.457031 8.8125 -21.265625 14.289062 -21.265625 C 19.769531 -21.265625 23.546875 -17.457031 23.546875 -11.910156 C 23.546875 -6.363281 19.769531 -2.550781 14.289062 -2.550781 C 8.8125 -2.550781 5.035156 -6.363281 5.035156 -11.910156 Z M 5.035156 -11.910156 "/></g></g></g><g fill="#ffffff" fill-opacity="0.4"><g transform="translate(101.433131, 187.825238)"><g><path d="M 3.46875 0 L 6.464844 0 L 6.464844 -10.71875 L 9.867188 -10.71875 C 10.785156 -10.71875 11.601562 -10.785156 12.351562 -10.921875 L 18.511719 0 L 21.980469 0 L 15.140625 -12.011719 C 16.503906 -12.894531 17.457031 -14.257812 18.136719 -16.058594 L 21.0625 -23.816406 L 17.898438 -23.816406 L 15.449219 -17.25 C 14.496094 -14.664062 13.101562 -13.578125 9.867188 -13.578125 L 6.464844 -13.578125 L 6.464844 -23.816406 L 3.46875 -23.816406 Z M 3.46875 0 "/></g></g></g><g fill="#ffffff" fill-opacity="0.4"><g transform="translate(127.285068, 187.825238)"><g><path d="M 3.46875 0 L 6.464844 0 L 6.464844 -23.816406 L 3.46875 -23.816406 Z M 3.46875 0 "/></g></g></g><g fill="#ffffff" fill-opacity="1"><g transform="translate(47.102935, 186.321398)"><g><path d="M 3.46875 0 L 18.035156 0 L 18.035156 -2.859375 L 6.464844 -2.859375 L 6.464844 -23.816406 L 3.46875 -23.816406 Z M 3.46875 0 "/></g></g></g><g fill="#ffffff" fill-opacity="1"><g transform="translate(68.771116, 186.321398)"><g><path d="M 14.289062 0.441406 C 21.539062 0.441406 26.640625 -4.660156 26.640625 -11.910156 C 26.640625 -19.15625 21.539062 -24.261719 14.289062 -24.261719 C 7.042969 -24.261719 1.972656 -19.15625 1.972656 -11.910156 C 1.972656 -4.660156 7.042969 0.441406 14.289062 0.441406 Z M 5.035156 -11.910156 C 5.035156 -17.457031 8.8125 -21.265625 14.289062 -21.265625 C 19.769531 -21.265625 23.546875 -17.457031 23.546875 -11.910156 C 23.546875 -6.363281 19.769531 -2.550781 14.289062 -2.550781 C 8.8125 -2.550781 5.035156 -6.363281 5.035156 -11.910156 Z M 5.035156 -11.910156 "/></g></g></g><g fill="#ffffff" fill-opacity="1"><g transform="translate(99.929288, 186.321398)"><g><path d="M 3.46875 0 L 6.464844 0 L 6.464844 -10.71875 L 9.867188 -10.71875 C 10.785156 -10.71875 11.601562 -10.785156 12.351562 -10.921875 L 18.511719 0 L 21.980469 0 L 15.140625 -12.011719 C 16.503906 -12.894531 17.457031 -14.257812 18.136719 -16.058594 L 21.0625 -23.816406 L 17.898438 -23.816406 L 15.449219 -17.25 C 14.496094 -14.664062 13.101562 -13.578125 9.867188 -13.578125 L 6.464844 -13.578125 L 6.464844 -23.816406 L 3.46875 -23.816406 Z M 3.46875 0 "/></g></g></g><g fill="#ffffff" fill-opacity="1"><g transform="translate(125.781225, 186.321398)"><g><path d="M 3.46875 0 L 6.464844 0 L 6.464844 -23.816406 L 3.46875 -23.816406 Z M 3.46875 0 "/></g></g></g><g fill="#000000" fill-opacity="0.4"><g transform="translate(194.026954, 188.008468)"><g><path d="M 2.519531 0 L 9.324219 0 L 9.324219 -12.148438 L 18.375 0 L 23.953125 0 L 23.953125 -23.816406 L 17.183594 -23.816406 L 17.183594 -11.738281 L 8.132812 -23.816406 L 2.519531 -23.816406 Z M 2.519531 0 "/></g></g></g><g fill="#000000" fill-opacity="0.4"><g transform="translate(220.530662, 188.008468)"><g><path d="M 2.519531 0 L 19.222656 0 L 19.222656 -5.613281 L 9.324219 -5.613281 L 9.324219 -9.289062 L 17.929688 -9.289062 L 17.929688 -14.800781 L 9.324219 -14.800781 L 9.324219 -18.269531 L 18.851562 -18.269531 L 18.851562 -23.816406 L 2.519531 -23.816406 Z M 2.519531 0 "/></g></g></g><g fill="#000000" fill-opacity="0.4"><g transform="translate(241.284523, 188.008468)"><g><path d="M 7.824219 0 L 14.664062 0 L 18.984375 -13.234375 L 23.308594 0 L 30.144531 0 L 37.800781 -23.816406 L 30.589844 -23.816406 L 28.921875 -18.507812 L 26.472656 -10.886719 L 22.253906 -23.816406 L 15.71875 -23.816406 L 13.949219 -18.507812 L 11.535156 -11.09375 L 9.117188 -18.507812 L 7.453125 -23.816406 L 0.171875 -23.816406 Z M 7.824219 0 "/></g></g></g><g fill="#000000" fill-opacity="0.4"><g transform="translate(279.253888, 188.008468)"><g><path d="M 1.226562 0 L 20.109375 0 L 20.109375 -6.054688 L 9.96875 -6.054688 L 19.871094 -18.882812 L 19.871094 -23.816406 L 1.597656 -23.816406 L 1.597656 -17.761719 L 11.125 -17.761719 L 1.226562 -4.933594 Z M 1.226562 0 "/></g></g></g><g fill="#000000" fill-opacity="1"><g transform="translate(192.523116, 186.504628)"><g><path d="M 2.519531 0 L 9.324219 0 L 9.324219 -12.148438 L 18.375 0 L 23.953125 0 L 23.953125 -23.816406 L 17.183594 -23.816406 L 17.183594 -11.738281 L 8.132812 -23.816406 L 2.519531 -23.816406 Z M 2.519531 0 "/></g></g></g><g fill="#000000" fill-opacity="1"><g transform="translate(219.026824, 186.504628)"><g><path d="M 2.519531 0 L 19.222656 0 L 19.222656 -5.613281 L 9.324219 -5.613281 L 9.324219 -9.289062 L 17.929688 -9.289062 L 17.929688 -14.800781 L 9.324219 -14.800781 L 9.324219 -18.269531 L 18.851562 -18.269531 L 18.851562 -23.816406 L 2.519531 -23.816406 Z M 2.519531 0 "/></g></g></g><g fill="#000000" fill-opacity="1"><g transform="translate(239.780685, 186.504628)"><g><path d="M 7.824219 0 L 14.664062 0 L 18.984375 -13.234375 L 23.308594 0 L 30.144531 0 L 37.800781 -23.816406 L 30.589844 -23.816406 L 28.921875 -18.507812 L 26.472656 -10.886719 L 22.253906 -23.816406 L 15.71875 -23.816406 L 13.949219 -18.507812 L 11.535156 -11.09375 L 9.117188 -18.507812 L 7.453125 -23.816406 L 0.171875 -23.816406 Z M 7.824219 0 "/></g></g></g><g fill="#000000" fill-opacity="1"><g transform="translate(277.750051, 186.504628)"><g><path d="M 1.226562 0 L 20.109375 0 L 20.109375 -6.054688 L 9.96875 -6.054688 L 19.871094 -18.882812 L 19.871094 -23.816406 L 1.597656 -23.816406 L 1.597656 -17.761719 L 11.125 -17.761719 L 1.226562 -4.933594 Z M 1.226562 0 "/></g></g></g></svg>